<svg id="Capa_1" enable-background="new 0 0 511.985 511.985" height="512" viewBox="0 0 511.985 511.985" width="512" xmlns="http://www.w3.org/2000/svg"><g><g><path d="m475.943 262.478s-.44 14.58-1.89 37.26c-2.1 32.75-6.3 82.39-14.32 129.409-6.13 35.96-37.19 62.32-73.67 62.32h-260.139c-36.48 0-67.54-26.36-73.67-62.32-8.02-47.02-12.22-96.66-14.32-129.409-1.45-22.68-1.89-37.26-1.89-37.26z" fill="#e49542"/><path d="m475.943 262.478s-.44 14.58-1.89 37.26c-2.31.5-4.69.78-7.12.83-140.629 2.7-281.249 2.7-421.878 0-2.43-.05-4.81-.33-7.12-.83-1.45-22.68-1.89-37.26-1.89-37.26z" fill="#e28424"/><path d="m158.064 491.467h-32.14c-36.48 0-67.54-26.36-73.67-62.32-13.57-79.57-16.21-166.669-16.21-166.669h54.35s1.99 87.1 12.2 166.669c4.62 35.96 28 62.32 55.47 62.32z" fill="#e28424"/><path d="m466.928 280.268c-140.623 2.703-281.246 2.703-421.869 0-17.485-.336-32.41-12.782-35.887-29.921-2.237-11.026-2.237-22.053 0-33.079 3.477-17.139 18.402-29.585 35.887-29.921 140.623-2.703 281.246-2.703 421.869 0 17.485.336 32.41 12.782 35.887 29.921 2.237 11.026 2.237 22.053 0 33.079-3.477 17.139-18.402 29.585-35.887 29.921z" fill="#ffd064"/><path d="m81.002 280.888c-11.98-.18-23.97-.39-35.95-.62-17.48-.34-32.41-12.78-35.88-29.92-2.24-11.03-2.24-22.05 0-33.08 3.47-17.14 18.4-29.59 35.88-29.92 11.98-.23 23.97-.44 35.95-.62-14.27 3.54-25.62 15.02-28.63 29.91-2.33 11.45-2.33 22.89 0 34.33 3.01 14.89 14.36 26.38 28.63 29.92z" fill="#ffc250"/><g><g><path d="m170.465 27.165c-5.271-2.664-10.782-4.67-16.532-6.017-11.874-2.782-23.955 3.773-28.409 15.126-22.246 56.693-43.069 113.904-62.469 171.632-3.885 11.561 1.155 24.348 12.04 29.849 5.271 2.664 10.782 4.67 16.532 6.017 11.874 2.782 23.955-3.773 28.409-15.126 22.246-56.693 43.069-113.904 62.469-171.632 3.885-11.561-1.155-24.348-12.04-29.849z" fill="#407093"/><path d="m81.956 240.796c-2.336-.893-4.627-1.907-6.864-3.041-10.887-5.495-15.925-18.29-12.038-29.847 19.403-57.725 40.225-114.933 62.47-171.634 4.451-11.352 16.531-17.906 28.407-15.126 2.442.57 4.837 1.271 7.19 2.085-7.718 2.054-14.32 7.707-17.407 15.576-23.176 59.086-44.874 118.7-65.096 178.851-2.696 8.021-1.267 16.607 3.338 23.136z" fill="#365e7d"/></g><g><path d="m358.056 21.143c-5.75 1.347-11.261 3.353-16.532 6.017-10.885 5.501-15.925 18.288-12.04 29.849 19.4 57.729 40.223 114.939 62.469 171.632 4.455 11.353 16.535 17.909 28.409 15.126 5.75-1.347 11.261-3.353 16.532-6.017 10.885-5.501 15.925-18.288 12.04-29.849-19.4-57.729-40.223-114.939-62.469-171.632-4.454-11.352-16.534-17.908-28.409-15.126z" fill="#407093"/><path d="m427.574 241.687c-2.363.817-4.77 1.513-7.213 2.082-11.872 2.789-23.956-3.774-28.407-15.126-22.241-56.692-43.063-113.9-62.47-171.634-3.887-11.557 1.154-24.343 12.038-29.847 2.237-1.134 4.522-2.136 6.848-3.025-4.592 6.535-6.015 15.108-3.323 23.121 20.226 60.16 41.923 119.774 65.096 178.851 3.092 7.878 9.707 13.537 17.431 15.578z" fill="#365e7d"/></g></g><g fill="#365e7d"><path d="m156.839 322.964c-.157 0-.313 0-.47 0-13.043.031-23.685 10.552-24.076 23.589-.608 20.281-.608 40.562 0 60.843.391 13.037 11.034 23.557 24.076 23.589h.47c13.043-.031 23.685-10.552 24.076-23.589.608-20.281.608-40.562 0-60.843-.39-13.037-11.033-23.558-24.076-23.589z"/><path d="m256.229 322.964c-.156 0-.313 0-.47 0-13.043.031-23.685 10.552-24.076 23.589-.608 20.281-.608 40.562 0 60.843.391 13.037 11.034 23.557 24.076 23.589h.47c13.043-.031 23.685-10.552 24.076-23.589.608-20.281.608-40.562 0-60.843-.391-13.037-11.034-23.558-24.076-23.589z"/><path d="m355.618 322.964c-.156 0-.313 0-.47 0-13.043.031-23.685 10.552-24.076 23.589-.608 20.281-.608 40.562 0 60.843.391 13.037 11.034 23.557 24.076 23.589h.47c13.043-.031 23.685-10.552 24.076-23.589.608-20.281.608-40.562 0-60.843-.391-13.037-11.034-23.558-24.076-23.589z"/></g></g><g><path d="m510.163 215.778c-4.133-20.415-22.252-35.525-43.088-35.93-6.635-.127-13.265-.242-19.898-.357-16.862-48.948-34.883-97.929-53.73-145.961-5.814-14.819-21.765-23.282-37.102-19.689-6.302 1.477-12.427 3.706-18.204 6.626-14.06 7.105-20.837 23.843-15.766 38.932 13.341 39.698 27.511 79.525 42.29 118.974-72.174-.715-145.165-.715-217.339 0 14.766-39.415 28.935-79.238 42.285-118.964 5.079-15.093-1.699-31.832-15.758-38.933-5.752-2.914-11.877-5.145-18.209-6.632-15.332-3.59-31.284 4.875-37.104 19.697-4.873 12.435-9.251 23.77-13.388 34.651-1.472 3.872.474 8.204 4.346 9.676 3.87 1.47 8.203-.474 9.675-4.346 4.118-10.834 8.479-22.122 13.33-34.504 3.114-7.929 11.592-12.474 19.715-10.57 5.168 1.213 10.166 3.033 14.863 5.413 7.455 3.765 11.029 12.692 8.312 20.767-19.29 57.403-40.265 115.029-62.343 171.281-3.108 7.927-11.586 12.468-19.713 10.566-5.134-1.205-10.135-3.027-14.86-5.412-7.45-3.766-11.024-12.695-8.314-20.768 12.195-36.289 25.139-72.883 38.471-108.767 1.443-3.883-.535-8.2-4.418-9.643-3.884-1.442-8.2.535-9.643 4.418-10.204 27.465-20.179 55.344-29.77 83.187-6.628.114-13.253.229-19.885.356-21.162.411-38.883 15.185-43.094 35.926-2.43 11.966-2.43 24.1 0 36.065 3.137 15.449 13.762 27.579 27.715 32.938 1.759 32.685 5.953 90.66 15.324 145.631 6.772 39.726 40.864 68.56 81.063 68.56h260.139c40.199 0 74.292-28.833 81.063-68.56 9.38-55.027 13.573-113.062 15.329-145.729 13.865-5.461 24.639-17.685 27.707-32.839 2.429-11.964 2.429-24.099-.001-36.06zm-165.256-181.924c4.716-2.384 9.716-4.203 14.86-5.409 8.131-1.906 16.606 2.636 19.716 10.564 22.098 56.316 43.073 113.943 62.342 171.281 2.712 8.072-.861 17-8.314 20.766-4.715 2.383-9.715 4.203-14.859 5.408-8.129 1.906-16.606-2.636-19.717-10.564-22.099-56.318-43.073-113.945-62.341-171.281-2.713-8.071.861-16.999 8.313-20.765zm150.554 215.005c-2.751 13.592-14.809 23.647-28.673 23.909-23.875.458-48.062.841-71.89 1.139-4.142.052-7.458 3.451-7.406 7.593.051 4.11 3.399 7.406 7.498 7.406h.096c23.86-.298 48.081-.682 71.988-1.141.063-.001.126-.006.189-.008-1.853 32.898-6.028 87.945-14.924 140.13-5.539 32.495-33.412 56.08-66.276 56.08h-260.139c-32.864 0-60.737-23.585-66.276-56.08-8.896-52.185-13.071-107.231-14.924-140.13.065.002.129.007.194.008 70.083 1.346 140.85 2.021 211.476 2.02 36.427 0 72.829-.179 109.053-.539 4.142-.041 7.467-3.432 7.425-7.574-.041-4.142-3.43-7.442-7.574-7.425-106.312 1.056-214.008.558-320.094-1.479-13.859-.261-25.921-10.319-28.681-23.914-2.028-9.985-2.028-20.11 0-30.095 2.803-13.806 14.599-23.64 28.683-23.914 4.814-.092 9.624-.173 14.435-.258-1.238 3.646-2.475 7.292-3.699 10.933-5.064 15.09 1.714 31.826 15.771 38.932 5.786 2.92 11.908 5.15 18.2 6.627 2.371.555 4.756.822 7.116.822 12.913 0 25.073-7.988 29.984-20.514 4.94-12.588 9.816-25.252 14.64-37.959 75.879-.792 152.727-.793 228.682 0 4.822 12.702 9.696 25.365 14.635 37.954 4.916 12.526 17.073 20.512 29.981 20.512 2.362 0 4.749-.268 7.121-.823 6.303-1.477 12.427-3.706 18.204-6.626 14.059-7.105 20.837-23.842 15.767-38.931-1.223-3.64-2.473-7.284-3.71-10.927 4.817.085 9.634.167 14.452.259 13.866.27 25.925 10.325 28.676 23.914 2.03 9.984 2.03 20.109 0 30.099z"/><path d="m156.857 315.464h-.505c-17.177.041-31.038 13.598-31.555 30.864-.609 20.335-.609 40.957 0 61.292.517 17.266 14.378 30.823 31.561 30.864h.499c17.177-.041 31.038-13.598 31.555-30.864.609-20.335.609-40.957 0-61.292-.517-17.266-14.378-30.823-31.555-30.864zm16.562 91.707c-.269 8.974-7.714 16.292-16.591 16.313h-.439c-8.883-.021-16.329-7.339-16.598-16.313-.601-20.037-.601-40.357 0-60.394.269-8.974 7.714-16.292 16.603-16.313h.422.005c8.883.021 16.329 7.339 16.598 16.313.6 20.037.6 40.357 0 60.394z"/><path d="m256.246 315.464h-.505c-17.177.041-31.038 13.598-31.555 30.864-.609 20.335-.609 40.957 0 61.292.517 17.266 14.378 30.823 31.561 30.864h.499c17.177-.041 31.038-13.598 31.555-30.864.609-20.335.609-40.957 0-61.292-.517-17.266-14.378-30.823-31.555-30.864zm16.562 91.707c-.269 8.974-7.714 16.292-16.591 16.313h-.439c-8.883-.021-16.329-7.339-16.598-16.313-.601-20.037-.601-40.357 0-60.394.269-8.974 7.714-16.292 16.603-16.313h.422.005c8.883.021 16.329 7.339 16.598 16.313.601 20.037.601 40.357 0 60.394z"/><path d="m355.636 315.464h-.506c-17.176.041-31.037 13.598-31.555 30.864-.609 20.335-.609 40.957 0 61.292.518 17.266 14.378 30.823 31.561 30.864h.5c17.177-.041 31.038-13.598 31.555-30.864.609-20.335.609-40.957 0-61.292-.518-17.266-14.379-30.823-31.555-30.864zm16.561 91.707c-.269 8.974-7.714 16.292-16.591 16.313h-.44c-8.883-.021-16.329-7.34-16.598-16.313-.601-20.037-.601-40.357 0-60.394.269-8.974 7.715-16.292 16.603-16.313h.423.005c8.883.021 16.329 7.339 16.598 16.313.601 20.037.601 40.357 0 60.394z"/></g></g></svg>