<svg xmlns="http://www.w3.org/2000/svg" viewBox="0 0 640 33.92"><defs><style>.cls-1{fill:#eae2b2;}.cls-2{fill:#a67153;}</style></defs><title>Asset 4</title><g id="Layer_2" data-name="Layer 2"><g id="Layer_1-2" data-name="Layer 1"><path class="cls-1" d="M632,8.17l1.81,2s-.38,3.13-7.6,4C626.23,14.19,632.11,12.69,632,8.17Z"/><path class="cls-1" d="M632,21.13l1.81-2s-.38-3.13-7.6-4C626.23,15.11,632.11,16.61,632,21.13Z"/><polygon class="cls-1" points="640 14.65 636.95 13.34 629.71 14.65 636.95 15.96 640 14.65"/><path class="cls-1" d="M402.15,33.34l-3.39-.3s-2.62-2.94,2.63-9.19C401.39,23.85,397.83,29.59,402.15,33.34Z"/><path class="cls-1" d="M390,22.38l.33,3.05s3.27,2.36,10.22-2.36C400.52,23.07,394.14,26.27,390,22.38Z"/><polygon class="cls-1" points="389.31 33.92 393.12 32.72 398.01 26.11 390.66 30.5 389.31 33.92"/><path class="cls-1" d="M396.51,28.05l-.64-.58a52.87,52.87,0,0,1,35.52-13.22H634.16v.81H431.39A51.91,51.91,0,0,0,396.51,28.05Z"/><path class="cls-1" d="M8.08,25.75l-1.83-2s.39-3.13,7.7-4C14,19.73,8,21.24,8.08,25.75Z"/><path class="cls-1" d="M8.08,12.79l-1.83,2s.39,3.13,7.7,4C14,18.81,8,17.31,8.08,12.79Z"/><polygon class="cls-1" points="0 19.27 3.08 20.58 10.42 19.27 3.08 17.96 0 19.27"/><path class="cls-1" d="M240.89.59l3.44.29s2.65,2.94-2.66,9.2C241.67,10.08,245.27,4.33,240.89.59Z"/><path class="cls-1" d="M253.23,11.54l-.33-3s-3.31-2.35-10.36,2.36C242.54,10.85,249,7.65,253.23,11.54Z"/><polygon class="cls-1" points="253.89 0 250.04 1.21 245.09 7.82 252.53 3.42 253.89 0"/><path class="cls-1" d="M211.28,19.68H5.92v-.81H211.28a53,53,0,0,0,35.33-13l.64.57A54,54,0,0,1,211.28,19.68Z"/><path class="cls-2" d="M241.8,23.44a6.4,6.4,0,0,1-2.36-1.06V19.73a.29.29,0,0,1,.32-.32.52.52,0,0,1,.42.19,1.53,1.53,0,0,1,.25.69l.28,1.38a4.52,4.52,0,0,0,1.7.72,8.86,8.86,0,0,0,2.07.25,5.67,5.67,0,0,0,2.7-.59,2,2,0,0,0,1.1-1.91,2.31,2.31,0,0,0-.42-1.41,3.86,3.86,0,0,0-1.28-1.05,23.23,23.23,0,0,0-2.53-1.14,12.43,12.43,0,0,1-3.4-1.91,3.29,3.29,0,0,1-1.15-2.58A3.08,3.08,0,0,1,241,9.25a6.33,6.33,0,0,1,3.51-.93,8.65,8.65,0,0,1,2.67.41,5.94,5.94,0,0,1,2.14,1.12v2.54a.29.29,0,0,1-.32.33.49.49,0,0,1-.41-.19,1.67,1.67,0,0,1-.26-.7L248,10.48a4.2,4.2,0,0,0-1.5-.73,7.44,7.44,0,0,0-1.93-.25,4.51,4.51,0,0,0-2.38.58,1.9,1.9,0,0,0-.94,1.75,2,2,0,0,0,.48,1.38,4.07,4.07,0,0,0,1.31,1c.54.28,1.4.67,2.57,1.17a16.22,16.22,0,0,1,2.47,1.22A4.44,4.44,0,0,1,249.52,18a3.76,3.76,0,0,1,.51,2,3.18,3.18,0,0,1-1.52,2.89,7.31,7.31,0,0,1-3.9.95A11.22,11.22,0,0,1,241.8,23.44Z"/><path class="cls-2" d="M253.07,23.05a2.62,2.62,0,0,1-1-2.18,2.55,2.55,0,0,1,1.08-2.25,6.61,6.61,0,0,1,2.84-1l3.05-.46v-.95a2.31,2.31,0,0,0-.65-1.7,2.46,2.46,0,0,0-1.81-.65,5.42,5.42,0,0,0-1.5.24,5.17,5.17,0,0,0-1.37.58l-.17,1c-.08.42-.26.63-.57.63a.32.32,0,0,1-.23-.08.25.25,0,0,1-.09-.2V14a9.19,9.19,0,0,1,2-.86,7.37,7.37,0,0,1,2.16-.35,4.18,4.18,0,0,1,2.77.91,3.14,3.14,0,0,1,1.07,2.52v6.35l.8.21a1.2,1.2,0,0,1,.44.21.37.37,0,0,1,.14.31c0,.17-.07.26-.23.26h-2.72V22.06H259a4.29,4.29,0,0,1-1.51,1.28,4.41,4.41,0,0,1-2.11.49A3.6,3.6,0,0,1,253.07,23.05Zm4.36-.7a3.16,3.16,0,0,0,1.18-1,2.48,2.48,0,0,0,.46-1.43V18.18l-2.68.43a4.52,4.52,0,0,0-2,.72,1.7,1.7,0,0,0-.69,1.46,1.76,1.76,0,0,0,.6,1.44,2.36,2.36,0,0,0,1.55.5A3.34,3.34,0,0,0,257.43,22.35Zm-2-11.47,1.88-3.14,1.29.84-2.2,2.93Z"/><path class="cls-2" d="M264.77,22.34a5.66,5.66,0,0,1-1.39-4,6.47,6.47,0,0,1,.63-2.94,4.49,4.49,0,0,1,1.74-1.91,5.06,5.06,0,0,1,2.61-.66,5.91,5.91,0,0,1,2.1.39,4.51,4.51,0,0,1,1.57.91V16a.25.25,0,0,1-.09.2.37.37,0,0,1-.26.08.46.46,0,0,1-.34-.14.9.9,0,0,1-.19-.46l-.2-1.06a2.71,2.71,0,0,0-1.06-.55,4.43,4.43,0,0,0-1.35-.21A3.19,3.19,0,0,0,266,15a4.93,4.93,0,0,0-1,3.27,4.89,4.89,0,0,0,1,3.28,3.29,3.29,0,0,0,2.64,1.18,4.5,4.5,0,0,0,2.66-.84.91.91,0,0,0,.17-.12.47.47,0,0,1,.26-.1.39.39,0,0,1,.32.15.56.56,0,0,1,.13.37c0,.27-.24.55-.71.82a5.67,5.67,0,0,1-2.91.78A5,5,0,0,1,264.77,22.34Z"/><path class="cls-2" d="M273.65,23.14a.51.51,0,0,1,.2-.43.92.92,0,0,1,.55-.16h.67V9.27H274c-.23,0-.34-.15-.34-.43a.52.52,0,0,1,.2-.45,1,1,0,0,1,.55-.14h2.22v6.22l.07,0a5.45,5.45,0,0,1,3.75-1.69,3.63,3.63,0,0,1,2.53.9,3.12,3.12,0,0,1,1,2.43v6.42l1,.24a1.13,1.13,0,0,1,.44.19.41.41,0,0,1,.14.33.23.23,0,0,1-.26.26h-4.06c-.23,0-.34-.14-.34-.43a.51.51,0,0,1,.2-.43.92.92,0,0,1,.55-.16h.67V16.23A2.16,2.16,0,0,0,280,13.9a3.59,3.59,0,0,0-1.72.48,5.81,5.81,0,0,0-1.56,1.25v6.92l1,.24a1.13,1.13,0,0,1,.44.19.41.41,0,0,1,.14.33.23.23,0,0,1-.26.26H274C273.76,23.57,273.65,23.43,273.65,23.14Z"/><path class="cls-2" d="M296.38,23.12a.55.55,0,0,1,.22-.45,1,1,0,0,1,.58-.16h.67V9.74h-3.69L294,10.88a1.75,1.75,0,0,1-.22.61.42.42,0,0,1-.37.19c-.24,0-.36-.1-.36-.32V8.58h11.45v2.78c0,.22-.12.32-.36.32a.41.41,0,0,1-.37-.19,1.75,1.75,0,0,1-.22-.61l-.21-1.14h-3.71V22.49l1.08.26a1.45,1.45,0,0,1,.46.2.43.43,0,0,1,.14.34c0,.19-.09.28-.26.28h-4.25C296.51,23.57,296.38,23.42,296.38,23.12Z"/><path class="cls-2" d="M305.31,23.14a.49.49,0,0,1,.21-.43.92.92,0,0,1,.55-.16h.69V14h-1.1c-.23,0-.35-.14-.35-.43a.49.49,0,0,1,.21-.44,1,1,0,0,1,.55-.14h2.31v9.53l1,.24a1.07,1.07,0,0,1,.44.19.38.38,0,0,1,.14.33c0,.17-.08.26-.25.26h-4.06C305.43,23.57,305.31,23.43,305.31,23.14ZM306.68,11a1.11,1.11,0,0,1-.33-.85,1.1,1.1,0,0,1,.33-.85,1.19,1.19,0,0,1,.84-.32,1.2,1.2,0,0,1,.84.32,1.07,1.07,0,0,1,.34.85,1.09,1.09,0,0,1-.34.85,1.2,1.2,0,0,1-.84.31A1.18,1.18,0,0,1,306.68,11Z"/><path class="cls-2" d="M311.42,23.14a.51.51,0,0,1,.2-.43.92.92,0,0,1,.55-.16h.67V14h-1.08c-.23,0-.34-.14-.34-.43a.5.5,0,0,1,.2-.44,1,1,0,0,1,.55-.14h2.21v1.51h.06a5.51,5.51,0,0,1,3.77-1.73,3.61,3.61,0,0,1,2.53.9,3.12,3.12,0,0,1,1,2.43v6.42l1,.24c.38.09.58.26.58.52a.23.23,0,0,1-.26.26H319c-.23,0-.34-.14-.34-.43a.51.51,0,0,1,.2-.43.92.92,0,0,1,.55-.16h.67V16.26a2.15,2.15,0,0,0-2.37-2.33,3.54,3.54,0,0,0-1.7.46,5.85,5.85,0,0,0-1.58,1.26v6.9l1,.24a1.07,1.07,0,0,1,.44.19.41.41,0,0,1,.14.33.23.23,0,0,1-.26.26h-4.06C311.53,23.57,311.42,23.43,311.42,23.14Z"/><path class="cls-2" d="M324.94,23.14a.49.49,0,0,1,.21-.43.92.92,0,0,1,.55-.16h.67V9.27h-1.08c-.23,0-.35-.15-.35-.43a.51.51,0,0,1,.21-.45,1,1,0,0,1,.55-.14h2.22v6.22l.07,0a5.45,5.45,0,0,1,3.75-1.69,3.6,3.6,0,0,1,2.52.9,3.13,3.13,0,0,1,1,2.43v6.42l1,.24a1.07,1.07,0,0,1,.44.19.38.38,0,0,1,.14.33.23.23,0,0,1-.26.26h-4.05c-.23,0-.35-.14-.35-.43a.49.49,0,0,1,.21-.43.92.92,0,0,1,.55-.16h.67V16.23a2.18,2.18,0,0,0-2.37-2.33,3.53,3.53,0,0,0-1.72.48A5.81,5.81,0,0,0,328,15.63v6.92l1,.24a1.07,1.07,0,0,1,.44.19.38.38,0,0,1,.14.33.23.23,0,0,1-.26.26h-4C325.06,23.57,324.94,23.43,324.94,23.14Z"/><path class="cls-2" d="M347.68,23.12a.52.52,0,0,1,.22-.45,1,1,0,0,1,.58-.16h.67V9.74h-3.69l-.22,1.14a1.77,1.77,0,0,1-.21.61.42.42,0,0,1-.37.19c-.24,0-.37-.1-.37-.32V8.58h11.46v2.78c0,.22-.12.32-.37.32a.42.42,0,0,1-.37-.19,2,2,0,0,1-.21-.61l-.22-1.14h-3.71V22.49l1.08.26a1.52,1.52,0,0,1,.47.2.43.43,0,0,1,.14.34c0,.19-.09.28-.26.28h-4.25C347.8,23.57,347.68,23.42,347.68,23.12Z"/><path class="cls-2" d="M357.67,22.93a3.12,3.12,0,0,1-1-2.45V14H355.6c-.23,0-.35-.14-.35-.43a.49.49,0,0,1,.21-.44A1,1,0,0,1,356,13h2.28v7.33a2.38,2.38,0,0,0,.62,1.71,2.31,2.31,0,0,0,1.76.65,3.42,3.42,0,0,0,1.69-.48A5.81,5.81,0,0,0,363.92,21V14h-1.07c-.24,0-.35-.14-.35-.43a.49.49,0,0,1,.21-.44,1,1,0,0,1,.55-.14h2.28v9.53l.86.24a1.26,1.26,0,0,1,.45.21.4.4,0,0,1,.14.31.23.23,0,0,1-.26.26H364V22.1H364a5.53,5.53,0,0,1-3.76,1.73A3.6,3.6,0,0,1,357.67,22.93Z"/><path class="cls-2" d="M368.36,28.21a.75.75,0,0,1-.27-.61,1.22,1.22,0,0,1,.15-.58,4.38,4.38,0,0,0,2.39-.56,4,4,0,0,0,1.41-2l.34-.93L368.54,14h-.88c-.23,0-.35-.14-.35-.43a.49.49,0,0,1,.21-.44,1,1,0,0,1,.55-.14h3.64a.23.23,0,0,1,.26.26.41.41,0,0,1-.16.33.82.82,0,0,1-.42.19l-1.14.26,2.84,7.24a1,1,0,0,1,.08.38c0,.15,0,.25,0,.29h.08s0-.14,0-.3a1.49,1.49,0,0,1,.06-.37L376.18,14h-1.34c-.23,0-.35-.14-.35-.43s.26-.58.76-.58h3.39c.15,0,.23.09.23.26s-.19.4-.58.52l-.88.26-4.06,10.41a8.34,8.34,0,0,1-1.77,2.85,3.43,3.43,0,0,1-2.54,1.1A1.06,1.06,0,0,1,368.36,28.21Z"/><path class="cls-2" d="M382.32,23.17a4.58,4.58,0,0,1-1.81-1.89,6.13,6.13,0,0,1-.64-2.89,6,6,0,0,1,1.33-4.08,4.65,4.65,0,0,1,3.65-1.51,4.43,4.43,0,0,1,3.3,1.23,4.51,4.51,0,0,1,1.21,3.28,3.72,3.72,0,0,1-.28,1.36h-7.57a4.18,4.18,0,0,0,1,3,3.38,3.38,0,0,0,2.57,1.06,5.17,5.17,0,0,0,1.47-.2,4.89,4.89,0,0,0,1.31-.66l.18-.11a.48.48,0,0,1,.27-.09.43.43,0,0,1,.33.15.61.61,0,0,1,.12.37c0,.26-.22.53-.66.8a6,6,0,0,1-3.09.8A5.4,5.4,0,0,1,382.32,23.17Zm5.31-5.58a1.51,1.51,0,0,0,.09-.6,3.19,3.19,0,0,0-.8-2.31,2.8,2.8,0,0,0-2.11-.82,3,3,0,0,0-2.29,1,4.3,4.3,0,0,0-1,2.73Zm-5.48-6.73,2.31-2.93h.91l2.3,2.93-.79.65-2-2.14-2,2.14Zm5.37-2.69q1.08-.37,1.08-1c0-.39-.23-.58-.69-.58a3.45,3.45,0,0,0-1,.15l-.15-.67a3.71,3.71,0,0,1,1.27-.28,1.85,1.85,0,0,1,1.2.38,1.23,1.23,0,0,1,.47,1,1.2,1.2,0,0,1-.32.83,2,2,0,0,1-.85.55l-.11.93h-.84Z"/><path class="cls-2" d="M391.28,23.14a.51.51,0,0,1,.2-.43.92.92,0,0,1,.55-.16h.67V14h-1.08c-.23,0-.34-.14-.34-.43a.5.5,0,0,1,.2-.44A1,1,0,0,1,392,13h2.2v1.51h.07a5.51,5.51,0,0,1,3.77-1.73,3.65,3.65,0,0,1,2.53.9,3.12,3.12,0,0,1,1,2.43v6.42l1,.24c.39.09.59.26.59.52a.23.23,0,0,1-.26.26h-4.06c-.23,0-.34-.14-.34-.43a.49.49,0,0,1,.2-.43.92.92,0,0,1,.55-.16H400V16.26a2.15,2.15,0,0,0-2.37-2.33,3.6,3.6,0,0,0-1.71.46,5.81,5.81,0,0,0-1.57,1.26v6.9l1,.24a1.12,1.12,0,0,1,.45.19.41.41,0,0,1,.14.33.23.23,0,0,1-.26.26h-4.06C391.39,23.57,391.28,23.43,391.28,23.14Z"/></g></g></svg>